<?xml version="1.0" encoding="UTF-8" standalone="no"?>
<!DOCTYPE svg PUBLIC "-//W3C//DTD SVG 1.1//EN" "http://www.w3.org/Graphics/SVG/1.1/DTD/svg11.dtd">
<svg width="100%" height="100%" viewBox="0 0 2845 2845" version="1.1" xmlns="http://www.w3.org/2000/svg" xmlns:xlink="http://www.w3.org/1999/xlink" xml:space="preserve" xmlns:serif="http://www.serif.com/" style="fill-rule:evenodd;clip-rule:evenodd;stroke-linejoin:round;stroke-miterlimit:2;">
    <g transform="matrix(5.55556,0,0,5.55556,0,0)">
        <g transform="matrix(1,0,0,1,0,-29.8864)">
            <path d="M213.333,277.973C207.445,277.973 202.667,273.195 202.667,267.307L202.667,160C202.667,154.112 207.445,149.333 213.333,149.333C219.221,149.333 224,154.112 224,160L224,267.307C224,273.216 219.221,277.973 213.333,277.973Z" style="fill:white;fill-rule:nonzero;"/>
        </g>
        <g transform="matrix(1,0,0,1,42.5634,-34.1136)">
            <path d="M373.333,448C367.445,448 362.667,443.221 362.667,437.333L362.667,309.333C362.667,303.445 367.445,298.667 373.333,298.667C379.221,298.667 384,303.445 384,309.333L384,437.333C384,443.221 379.221,448 373.333,448Z" style="fill:white;fill-rule:nonzero;"/>
        </g>
        <g transform="matrix(1,0,0,1,42.5634,-34.1136)">
            <path d="M437.333,384L309.333,384C303.445,384 298.667,379.221 298.667,373.333C298.667,367.445 303.445,362.667 309.333,362.667L437.333,362.667C443.221,362.667 448,367.445 448,373.333C448,379.221 443.221,384 437.333,384Z" style="fill:white;fill-rule:nonzero;"/>
        </g>
        <g transform="matrix(1,0,0,1,0,-29.8864)">
            <path d="M96,277.333C66.603,277.333 42.667,301.269 42.667,330.666C42.667,360.063 66.603,384 96,384C125.397,384 149.333,360.064 149.333,330.667C149.333,301.27 125.397,277.333 96,277.333ZM96,362.667C78.357,362.667 64,348.31 64,330.667C64,313.024 78.357,298.667 96,298.667C113.643,298.667 128,313.024 128,330.667C128,348.309 113.643,362.667 96,362.667Z" style="fill:white;fill-rule:nonzero;"/>
        </g>
        <g transform="matrix(1,0,0,1,0,-29.8864)">
            <path d="M448,213.333L429.952,213.333C423.36,213.333 416.896,211.072 411.733,206.933L327.68,139.69C318.251,132.16 306.411,128 294.357,128L140.16,128C122.283,128 105.707,136.875 95.787,151.744L77.632,179.008C72.192,187.136 63.104,192 53.333,192C23.936,192 0,215.936 0,245.333L0,288C0,317.397 23.936,341.333 53.333,341.333C59.221,341.333 64,336.554 64,330.666C64,324.778 59.221,320 53.333,320C35.69,320 21.333,305.643 21.333,288L21.333,245.333C21.333,227.69 35.69,213.333 53.333,213.333C70.272,213.333 85.973,204.928 95.381,190.826L113.536,163.583C119.488,154.666 129.451,149.332 140.16,149.332L294.357,149.332C301.61,149.332 308.693,151.828 314.368,156.351L398.421,223.572C407.317,230.719 418.538,234.665 429.973,234.665L448,234.665C479.296,234.665 490.667,266.558 490.667,287.998C490.667,309.011 474.582,319.998 458.667,319.998C452.779,319.998 448,324.777 448,330.665C448,336.553 452.779,341.332 458.667,341.332C489.067,341.333 512,318.4 512,288C512,251.797 489.579,213.333 448,213.333Z" style="fill:white;fill-rule:nonzero;"/>
        </g>
        <g transform="matrix(1,0,0,1,0,-29.8864)">
            <path d="M373.333,320L138.667,320C132.779,320 128,324.779 128,330.667C128,336.555 132.779,341.334 138.667,341.334L373.334,341.334C379.222,341.334 384.001,336.555 384.001,330.667C384.001,324.779 379.221,320 373.333,320Z" style="fill:white;fill-rule:nonzero;"/>
        </g>
        <g transform="matrix(1,0,0,1,0,-29.8864)">
            <path d="M352,213.333L256,213.333L256,181.333C256,175.445 251.221,170.666 245.333,170.666C239.445,170.666 234.666,175.445 234.666,181.333L234.666,224C234.666,229.888 239.445,234.667 245.333,234.667L352,234.667C357.888,234.667 362.667,229.888 362.667,224C362.667,218.112 357.888,213.333 352,213.333Z" style="fill:white;fill-rule:nonzero;"/>
        </g>
        <g transform="matrix(1,0,0,1,0,-29.8864)">
            <path d="M202.667,213.333L134.592,213.333L148.224,186.112C150.848,180.843 148.715,174.443 143.445,171.797C138.154,169.173 131.776,171.285 129.13,176.576L107.797,219.243C106.133,222.528 106.325,226.475 108.266,229.611C110.207,232.747 113.642,234.667 117.333,234.667L202.666,234.667C208.554,234.667 213.333,229.888 213.333,224C213.333,218.112 208.555,213.333 202.667,213.333Z" style="fill:white;fill-rule:nonzero;"/>
        </g>
        <g transform="matrix(1,0,0,1,0,-29.8864)">
            <path d="M288,256L266.667,256C260.779,256 256,260.779 256,266.667C256,272.555 260.779,277.334 266.667,277.334L288,277.334C293.888,277.334 298.667,272.555 298.667,266.667C298.667,260.779 293.888,256 288,256Z" style="fill:white;fill-rule:nonzero;"/>
        </g>
    </g>
</svg>
