<?xml version="1.0" encoding="UTF-8" standalone="no"?>
<!DOCTYPE svg PUBLIC "-//W3C//DTD SVG 1.1//EN" "http://www.w3.org/Graphics/SVG/1.1/DTD/svg11.dtd">
<svg width="100%" height="100%" viewBox="0 0 2845 2845" version="1.1" xmlns="http://www.w3.org/2000/svg" xmlns:xlink="http://www.w3.org/1999/xlink" xml:space="preserve" xmlns:serif="http://www.serif.com/" style="fill-rule:evenodd;clip-rule:evenodd;stroke-linejoin:round;stroke-miterlimit:2;">
    <g transform="matrix(5.55556,0,0,5.55556,0,0)">
        <path d="M213.333,170.667C212.075,170.667 210.837,170.432 209.643,170.005L6.976,95.339C2.773,93.781 -0,89.813 -0,85.333C-0,80.853 2.773,76.885 6.976,75.328L209.643,0.661C212.011,-0.213 214.635,-0.213 217.024,0.661L419.691,75.328C423.893,76.885 426.667,80.853 426.667,85.333C426.667,89.813 423.893,93.781 419.691,95.339L217.024,170.005C215.829,170.432 214.592,170.667 213.333,170.667ZM41.515,85.333L213.333,148.629L385.152,85.333L213.333,22.037L41.515,85.333Z" style="fill:white;fill-rule:nonzero;"/>
        <path d="M183.893,415.787C182.656,415.787 181.419,415.573 180.203,415.125L6.976,351.339C2.795,349.781 -0,345.813 -0,341.333L-0,85.333C-0,79.445 4.779,74.667 10.667,74.667C16.555,74.667 21.333,79.445 21.333,85.333L21.333,333.888L187.584,395.115C193.109,397.141 195.947,403.285 193.899,408.811C192.32,413.12 188.245,415.787 183.893,415.787Z" style="fill:white;fill-rule:nonzero;"/>
        <path d="M416,192C410.112,192 405.333,187.221 405.333,181.333L405.333,85.333C405.333,79.445 410.112,74.667 416,74.667C421.888,74.667 426.667,79.445 426.667,85.333L426.667,181.333C426.667,187.221 421.888,192 416,192Z" style="fill:white;fill-rule:nonzero;"/>
        <path d="M213.333,277.973C207.445,277.973 202.667,273.195 202.667,267.307L202.667,160C202.667,154.112 207.445,149.333 213.333,149.333C219.221,149.333 224,154.112 224,160L224,267.307C224,273.216 219.221,277.973 213.333,277.973Z" style="fill:white;fill-rule:nonzero;"/>
        <path d="M373.333,512C296.875,512 234.667,449.792 234.667,373.333C234.667,296.875 296.875,234.667 373.333,234.667C449.792,234.667 512,296.875 512,373.333C512,449.792 449.792,512 373.333,512ZM373.333,256C308.629,256 256,308.651 256,373.333C256,438.016 308.629,490.667 373.333,490.667C438.037,490.667 490.667,438.016 490.667,373.333C490.667,308.651 438.037,256 373.333,256Z" style="fill:white;fill-rule:nonzero;"/>
        <path d="M373.333,448C367.445,448 362.667,443.221 362.667,437.333L362.667,309.333C362.667,303.445 367.445,298.667 373.333,298.667C379.221,298.667 384,303.445 384,309.333L384,437.333C384,443.221 379.221,448 373.333,448Z" style="fill:white;fill-rule:nonzero;"/>
        <path d="M437.333,384L309.333,384C303.445,384 298.667,379.221 298.667,373.333C298.667,367.445 303.445,362.667 309.333,362.667L437.333,362.667C443.221,362.667 448,367.445 448,373.333C448,379.221 443.221,384 437.333,384Z" style="fill:white;fill-rule:nonzero;"/>
    </g>
</svg>
