<?xml version="1.0" encoding="UTF-8" standalone="no"?>
<!DOCTYPE svg PUBLIC "-//W3C//DTD SVG 1.1//EN" "http://www.w3.org/Graphics/SVG/1.1/DTD/svg11.dtd">
<svg width="100%" height="100%" viewBox="0 0 2845 2845" version="1.1" xmlns="http://www.w3.org/2000/svg" xmlns:xlink="http://www.w3.org/1999/xlink" xml:space="preserve" xmlns:serif="http://www.serif.com/" style="fill-rule:evenodd;clip-rule:evenodd;stroke-linejoin:round;stroke-miterlimit:2;">
    <g transform="matrix(5.55556,0,0,5.55556,0,0)">
        <g>
            <g>
                <path d="M438.09,273.32L398.494,273.32C402.53,284.37 404.735,296.295 404.735,308.724L404.735,458.374C404.735,463.556 403.833,468.53 402.192,473.156L467.653,473.156C492.106,473.156 511.999,453.262 511.999,428.81L511.999,347.229C512,306.476 478.844,273.32 438.09,273.32Z" style="fill:white;fill-rule:nonzero;"/>
            </g>
        </g>
        <g>
            <g>
                <path d="M107.265,308.725C107.265,296.295 109.47,284.371 113.506,273.321L73.91,273.321C33.156,273.321 0,306.477 0,347.231L0,428.812C0,453.264 19.893,473.158 44.346,473.158L109.808,473.158C108.167,468.53 107.265,463.557 107.265,458.375L107.265,308.725Z" style="fill:white;fill-rule:nonzero;"/>
            </g>
        </g>
        <g>
            <g>
                <path d="M301.261,234.815L210.739,234.815C169.985,234.815 136.829,267.971 136.829,308.725L136.829,458.375C136.829,466.538 143.447,473.157 151.611,473.157L360.389,473.157C368.553,473.157 375.171,466.539 375.171,458.375L375.171,308.725C375.171,267.971 342.015,234.815 301.261,234.815Z" style="fill:white;fill-rule:nonzero;"/>
            </g>
        </g>
        <g>
            <g>
                <path d="M256,38.84C206.988,38.84 167.114,78.714 167.114,127.727C167.114,160.972 185.463,190.007 212.561,205.251C225.414,212.481 240.232,216.613 256,216.613C271.768,216.613 286.586,212.481 299.439,205.251C326.538,190.007 344.886,160.971 344.886,127.727C344.886,78.715 305.012,38.84 256,38.84Z" style="fill:white;fill-rule:nonzero;"/>
            </g>
        </g>
        <g>
            <g>
                <path d="M99.918,121.689C63.263,121.689 33.443,151.509 33.443,188.164C33.443,224.819 63.263,254.639 99.918,254.639C109.216,254.639 118.07,252.713 126.113,249.251C140.019,243.264 151.485,232.666 158.58,219.391C163.56,210.074 166.393,199.445 166.393,188.164C166.393,151.51 136.573,121.689 99.918,121.689Z" style="fill:white;fill-rule:nonzero;"/>
            </g>
        </g>
        <g>
            <g>
                <path d="M412.082,121.689C375.427,121.689 345.607,151.509 345.607,188.164C345.607,199.446 348.44,210.075 353.42,219.391C360.515,232.667 371.981,243.265 385.887,249.251C393.93,252.713 402.784,254.639 412.082,254.639C448.737,254.639 478.557,224.819 478.557,188.164C478.557,151.509 448.737,121.689 412.082,121.689Z" style="fill:white;fill-rule:nonzero;"/>
            </g>
        </g>
    </g>
</svg>
