<?xml version="1.0" encoding="UTF-8" standalone="no"?>
<!DOCTYPE svg PUBLIC "-//W3C//DTD SVG 1.1//EN" "http://www.w3.org/Graphics/SVG/1.1/DTD/svg11.dtd">
<svg width="100%" height="100%" viewBox="0 0 2667 2667" version="1.1" xmlns="http://www.w3.org/2000/svg" xmlns:xlink="http://www.w3.org/1999/xlink" xml:space="preserve" xmlns:serif="http://www.serif.com/" style="fill-rule:evenodd;clip-rule:evenodd;stroke-linejoin:round;stroke-miterlimit:2;">
    <g transform="matrix(5.55556,0,0,5.55556,0,0)">
        <g>
            <g>
                <path d="M456,240L448,240L448,72C447.974,49.92 430.08,32.026 408,32L72,32C49.92,32.026 32.026,49.92 32,72L32,192L24,192C10.745,192 0,202.745 0,216L0,424C0,437.255 10.745,448 24,448L328,448C332.418,448 336,444.418 336,440C335.974,417.92 318.08,400.026 296,400L272,400L272,352L368,352L368,424C368,437.255 378.745,448 392,448L456,448C469.255,448 480,437.255 480,424L480,264C480,250.745 469.255,240 456,240ZM176,424C176,428.418 172.418,432 168,432L24,432C19.582,432 16,428.418 16,424L16,416L176,416L176,424ZM176,400L16,400L16,216C16,211.582 19.582,208 24,208L168,208C172.418,208 176,211.582 176,216L176,400ZM296,416C306.168,416.012 315.229,422.418 318.632,432L190.528,432C191.476,429.438 191.973,426.732 192,424L192,416L296,416ZM192,400L192,352L208,352L208,400L192,400ZM224,400L224,352L256,352L256,400L224,400ZM368,336L192,336L192,288L368,288L368,336ZM368,264L368,272L192,272L192,216C191.973,212.204 191.034,208.47 189.264,205.112C189.384,205 189.544,204.968 189.656,204.848L268.856,125.648C271.926,122.47 271.838,117.405 268.66,114.336C265.56,111.342 260.645,111.342 257.544,114.336L178.344,193.536C178.152,193.736 178.072,193.992 177.904,194.2C174.8,192.76 171.421,192.01 168,192L48,192L48,72C48,58.745 58.745,48 72,48L408,48C421.255,48 432,58.745 432,72L432,240L392,240C378.745,240 368,250.745 368,264ZM464,424C464,428.418 460.418,432 456,432L392,432C387.582,432 384,428.418 384,424L384,416L464,416L464,424ZM464,400L384,400L384,264C384,259.582 387.582,256 392,256L456,256C460.418,256 464,259.582 464,264L464,400Z" style="fill:rgb(2,31,17);fill-rule:nonzero;"/>
            </g>
        </g>
        <g>
            <g>
                <path d="M95.592,289.376C92.468,286.253 87.404,286.253 84.28,289.376L50.344,323.312C47.166,326.382 47.078,331.446 50.148,334.624C53.218,337.802 58.282,337.89 61.46,334.82C61.527,334.756 61.592,334.69 61.656,334.624L95.592,300.688C97.02,298.213 94.15,293.508 95.592,289.376Z" style="fill:rgb(2,31,17);fill-rule:nonzero;"/>
            </g>
        </g>
        <g>
            <g>
                <path d="M143.396,289.376C140.296,286.382 135.381,286.382 132.28,289.376L98.344,323.312C95.166,326.381 95.078,331.446 98.148,334.624C101.217,337.802 106.282,337.89 109.46,334.82C109.527,334.756 109.592,334.69 109.656,334.624L143.592,300.688C146.661,297.51 146.574,292.445 143.396,289.376Z" style="fill:rgb(2,31,17);fill-rule:nonzero;"/>
            </g>
        </g>
        <g>
            <g>
                <path d="M317.46,114.344C314.36,111.35 309.445,111.35 306.344,114.344L227.144,193.544C223.966,196.613 223.878,201.678 226.947,204.856C230.016,208.034 235.081,208.122 238.259,205.053C238.326,204.989 238.391,204.923 238.456,204.856L317.656,125.656C320.726,122.478 320.638,117.413 317.46,114.344Z" style="fill:rgb(2,31,17);fill-rule:nonzero;"/>
            </g>
        </g>
        <g>
            <g>
                <path d="M440.772,311.032C437.672,308.037 432.756,308.037 429.656,311.032L407.032,333.656C403.854,336.726 403.766,341.79 406.836,344.968C409.906,348.146 414.97,348.234 418.148,345.164C418.214,345.1 418.28,345.034 418.344,344.968L440.968,322.344C444.038,319.166 443.95,314.102 440.772,311.032Z" style="fill:rgb(2,31,17);fill-rule:nonzero;"/>
            </g>
        </g>
        <g>
            <g>
                <path d="M240.16,304L240.08,304C235.662,304.022 232.098,307.622 232.12,312.04C232.142,316.458 235.742,320.022 240.16,320C244.578,320 248.16,316.418 248.16,312C248.16,307.582 244.578,304 240.16,304Z" style="fill:rgb(2,31,17);fill-rule:nonzero;"/>
            </g>
        </g>
        <g>
            <g>
                <path d="M256,64L224,64C219.582,64 216,67.582 216,72C216,76.418 219.582,80 224,80L256,80C260.418,80 264,76.418 264,72C264,67.582 260.418,64 256,64Z" style="fill:rgb(2,31,17);fill-rule:nonzero;"/>
            </g>
        </g>
    </g>
</svg>
