<?xml version="1.0" encoding="UTF-8" standalone="no"?>
<!DOCTYPE svg PUBLIC "-//W3C//DTD SVG 1.1//EN" "http://www.w3.org/Graphics/SVG/1.1/DTD/svg11.dtd">
<svg width="100%" height="100%" viewBox="0 0 15806 15806" version="1.1" xmlns="http://www.w3.org/2000/svg" xmlns:xlink="http://www.w3.org/1999/xlink" xml:space="preserve" xmlns:serif="http://www.serif.com/" style="fill-rule:evenodd;clip-rule:evenodd;stroke-linejoin:round;stroke-miterlimit:2;">
    <g transform="matrix(5.55556,0,0,5.55556,0,0)">
        <g transform="matrix(5.55556,0,0,5.55556,0,0)">
            <path d="M319.997,277.336C308.2,277.336 298.665,286.894 298.665,298.668L298.665,384.003C298.665,395.756 289.106,405.334 277.329,405.334L213.33,405.334L213.33,85.338C213.33,67.119 201.724,50.842 184.275,44.783L177.959,42.67L277.329,42.67C289.106,42.67 298.665,52.248 298.665,64.006L298.665,128.005C298.665,139.779 308.2,149.337 319.997,149.337C331.793,149.337 341.328,139.779 341.328,128.005L341.328,64.006C341.328,28.721 312.614,0.007 277.329,0.007L48,0.007C47.187,0.007 46.507,0.37 45.718,0.475C44.691,0.389 43.71,0.007 42.668,0.007C19.137,0.007 0,19.139 0,42.67L0,426.666C0,444.885 11.605,461.162 29.054,467.22L157.44,510.017C161.791,511.361 166.119,512.001 170.666,512.001C194.197,512.001 213.33,492.865 213.33,469.334L213.33,448.002L277.329,448.002C312.614,448.002 341.328,419.287 341.328,384.003L341.328,298.668C341.328,286.894 331.793,277.336 319.997,277.336Z" style="fill-rule:nonzero;"/>
            <path d="M505.745,198.255L420.41,112.923C414.312,106.822 405.136,104.986 397.16,108.291C389.203,111.599 383.996,119.384 383.996,128.005L383.996,192.005L298.665,192.005C286.888,192.005 277.329,201.559 277.329,213.336C277.329,225.114 286.888,234.668 298.665,234.668L383.996,234.668L383.996,298.668C383.996,307.289 389.203,315.074 397.16,318.382C405.136,321.687 414.312,319.851 420.41,313.753L505.745,228.418C514.084,220.078 514.084,206.594 505.745,198.255Z" style="fill-rule:nonzero;"/>
        </g>
    </g>
</svg>
