<?xml version="1.0" encoding="UTF-8" standalone="no"?>
<!DOCTYPE svg PUBLIC "-//W3C//DTD SVG 1.1//EN" "http://www.w3.org/Graphics/SVG/1.1/DTD/svg11.dtd">
<svg width="100%" height="100%" viewBox="0 0 2845 2845" version="1.1" xmlns="http://www.w3.org/2000/svg" xmlns:xlink="http://www.w3.org/1999/xlink" xml:space="preserve" xmlns:serif="http://www.serif.com/" style="fill-rule:evenodd;clip-rule:evenodd;stroke-linejoin:round;stroke-miterlimit:2;">
    <g transform="matrix(5.55556,0,0,5.55556,0,0)">
        <g transform="matrix(1,0,0,1,42,0)">
            <path d="M210.352,246.633C244.234,246.633 273.574,234.48 297.547,210.504C321.52,186.531 333.672,157.199 333.672,123.313C333.672,89.438 321.52,60.102 297.543,36.121C273.566,12.152 244.23,0 210.352,0C176.465,0 147.133,12.152 123.16,36.125C99.187,60.098 87.031,89.434 87.031,123.313C87.031,157.199 99.187,186.535 123.164,210.508C147.141,234.477 176.477,246.633 210.352,246.633Z" style="fill:white;fill-rule:nonzero;"/>
        </g>
        <g transform="matrix(1,0,0,1,42,0)">
            <path d="M426.129,393.703C425.438,383.727 424.039,372.844 421.98,361.352C419.902,349.773 417.227,338.828 414.023,328.824C410.715,318.484 406.215,308.273 400.652,298.488C394.879,288.332 388.098,279.488 380.488,272.211C372.531,264.598 362.789,258.477 351.523,254.012C340.297,249.57 327.855,247.32 314.547,247.32C309.32,247.32 304.266,249.465 294.504,255.82C288.496,259.738 281.469,264.27 273.625,269.281C266.918,273.555 257.832,277.559 246.609,281.184C235.66,284.727 224.543,286.523 213.57,286.523C202.598,286.523 191.484,284.727 180.523,281.184C169.313,277.562 160.227,273.559 153.527,269.285C145.758,264.32 138.727,259.789 132.629,255.816C122.879,249.461 117.82,247.316 112.594,247.316C99.281,247.316 86.844,249.57 75.621,254.016C64.363,258.473 54.617,264.594 46.652,272.215C39.047,279.496 32.262,288.336 26.496,298.488C20.938,308.273 16.438,318.48 13.125,328.828C9.926,338.832 7.25,349.773 5.172,361.352C3.113,372.828 1.715,383.715 1.023,393.715C0.344,403.512 -0,413.68 -0,423.949C-0,450.676 8.496,472.313 25.25,488.27C41.797,504.016 63.691,512.004 90.316,512.004L336.848,512.004C363.473,512.004 385.359,504.02 401.91,488.27C418.668,472.324 427.164,450.684 427.164,423.945C427.16,413.629 426.813,403.453 426.129,393.703Z" style="fill:white;fill-rule:nonzero;"/>
        </g>
    </g>
</svg>
