<?xml version="1.0" encoding="UTF-8" standalone="no"?>
<!DOCTYPE svg PUBLIC "-//W3C//DTD SVG 1.1//EN" "http://www.w3.org/Graphics/SVG/1.1/DTD/svg11.dtd">
<svg width="100%" height="100%" viewBox="0 0 175 175" version="1.1" xmlns="http://www.w3.org/2000/svg" xmlns:xlink="http://www.w3.org/1999/xlink" xml:space="preserve" xmlns:serif="http://www.serif.com/" style="fill-rule:evenodd;clip-rule:evenodd;stroke-linejoin:round;stroke-miterlimit:2;">
    <g transform="matrix(5.55556,0,0,5.55556,0,0)">
        <g>
            <g>
                <path d="M7.592,16.86C5.822,16.86 4.389,18.294 4.389,20.064C4.389,21.834 5.823,23.268 7.592,23.268C9.36,23.268 10.795,21.834 10.795,20.064C10.795,18.294 9.36,16.86 7.592,16.86ZM7.592,21.032C7.06,21.032 6.624,20.598 6.624,20.065C6.624,19.532 7.06,19.098 7.592,19.098C8.123,19.098 8.558,19.532 8.558,20.065C8.558,20.598 8.124,21.032 7.592,21.032Z" style="fill:white;fill-rule:nonzero;"/>
                <path d="M30.915,17.439L30.391,13.177C30.288,12.359 29.573,11.759 28.748,11.804L27.6,11.868L24.036,8.657C23.692,8.348 23.249,8.178 22.787,8.178L15.546,8.177C13.921,8.177 12.345,8.732 11.078,9.75L7.038,12.996L1.605,14.354C0.907,14.528 0.417,15.156 0.417,15.875L0.417,17.441C0.187,17.44 0,17.626 0,17.856L0,19.927C0,20.222 0.239,20.461 0.534,20.461L3.601,20.461C3.588,20.328 3.561,20.201 3.561,20.065C3.561,17.838 5.365,16.036 7.591,16.036C9.817,16.036 11.62,17.838 11.62,20.065C11.62,20.202 11.592,20.329 11.579,20.461L20.072,20.461C20.06,20.328 20.033,20.201 20.033,20.065C20.033,17.838 21.837,16.036 24.062,16.036C26.289,16.036 28.09,17.838 28.09,20.065C28.09,20.202 28.064,20.329 28.05,20.461L30.911,20.461C31.206,20.461 31.444,20.222 31.444,19.927L31.444,17.974C31.449,17.68 31.21,17.439 30.915,17.439ZM20.168,12.202L10.066,12.713L12,11.158C13.051,10.313 14.357,9.853 15.706,9.853L20.168,9.853L20.168,12.202ZM21.846,12.117L21.846,9.854L22.503,9.854C22.731,9.854 22.95,9.938 23.119,10.091L25.181,11.947L21.846,12.117Z" style="fill:white;fill-rule:nonzero;"/>
                <path d="M24.064,16.86C22.294,16.86 20.861,18.294 20.861,20.064C20.861,21.834 22.295,23.268 24.064,23.268C25.833,23.268 27.267,21.834 27.267,20.064C27.267,18.294 25.833,16.86 24.064,16.86ZM24.064,21.032C23.531,21.032 23.097,20.598 23.097,20.065C23.097,19.532 23.531,19.098 24.064,19.098C24.595,19.098 25.031,19.532 25.031,20.065C25.031,20.598 24.596,21.032 24.064,21.032Z" style="fill:white;fill-rule:nonzero;"/>
            </g>
        </g>
    </g>
</svg>
