<?xml version="1.0" encoding="UTF-8" standalone="no"?>
<!DOCTYPE svg PUBLIC "-//W3C//DTD SVG 1.1//EN" "http://www.w3.org/Graphics/SVG/1.1/DTD/svg11.dtd">
<svg width="100%" height="100%" viewBox="0 0 2845 2845" version="1.1" xmlns="http://www.w3.org/2000/svg" xmlns:xlink="http://www.w3.org/1999/xlink" xml:space="preserve" xmlns:serif="http://www.serif.com/" style="fill-rule:evenodd;clip-rule:evenodd;stroke-linejoin:round;stroke-miterlimit:2;">
    <g transform="matrix(5.55556,0,0,5.55556,0,0)">
        <g>
            <g>
                <path d="M224,159.992L224,127.992L32,127.992C14.368,127.992 0,142.36 0,159.992L0,223.992L230.752,223.992C226.304,204.44 224,183.384 224,159.992Z" style="fill:white;fill-rule:nonzero;"/>
            </g>
        </g>
        <g>
            <g>
                <path d="M510.688,287.992C488.864,321.624 455.584,350.232 407.904,377.624C400.576,381.816 392.32,383.992 384,383.992C375.68,383.992 367.424,381.816 360.192,377.688C312.512,350.232 279.232,321.592 257.376,287.992L0,287.992L0,447.992C0,465.656 14.368,479.992 32,479.992L480,479.992C497.664,479.992 512,465.656 512,447.992L512,287.992L510.688,287.992ZM144,383.992L80,383.992C71.168,383.992 64,376.824 64,367.992C64,359.16 71.168,351.992 80,351.992L144,351.992C152.832,351.992 160,359.16 160,367.992C160,376.824 152.832,383.992 144,383.992Z" style="fill:white;fill-rule:nonzero;"/>
            </g>
        </g>
        <g>
            <g>
                <path d="M502.304,81.304L390.304,33.304C386.24,31.576 381.728,31.576 377.664,33.304L265.664,81.304C259.808,83.8 256,89.592 256,95.992L256,159.992C256,248.024 288.544,299.48 376.032,349.88C378.496,351.288 381.248,351.992 384,351.992C386.752,351.992 389.504,351.288 391.968,349.88C479.456,299.608 512,248.152 512,159.992L512,95.992C512,89.592 508.192,83.8 502.304,81.304ZM444.512,154.008L380.512,234.008C377.44,237.784 372.832,239.992 368,239.992L367.328,239.992C362.24,239.768 357.536,237.144 354.688,232.888L322.688,184.888C317.792,177.528 319.776,167.608 327.136,162.712C334.432,157.848 344.384,159.768 349.312,167.16L369.184,196.952L419.488,134.04C425.024,127.16 435.104,126.072 441.984,131.544C448.896,137.016 449.984,147.096 444.512,154.008Z" style="fill:white;fill-rule:nonzero;"/>
            </g>
        </g>
    </g>
</svg>
