<?xml version="1.0" encoding="UTF-8" standalone="no"?>
<!DOCTYPE svg PUBLIC "-//W3C//DTD SVG 1.1//EN" "http://www.w3.org/Graphics/SVG/1.1/DTD/svg11.dtd">
<svg width="100%" height="100%" viewBox="0 0 7412 2377" version="1.1" xmlns="http://www.w3.org/2000/svg" xmlns:xlink="http://www.w3.org/1999/xlink" xml:space="preserve" xmlns:serif="http://www.serif.com/" style="fill-rule:evenodd;clip-rule:evenodd;stroke-linejoin:round;stroke-miterlimit:2;">
    <g transform="matrix(5.55556,0,0,5.55556,0,0)">
        <g id="Artboard1" transform="matrix(1,0,0,1,0,-143.757)">
            <rect x="0" y="143.757" width="1334.04" height="427.795" style="fill:none;"/>
            <g transform="matrix(1,0,0,1,168.458,-952.361)">
                <g transform="matrix(5.55556,0,0,5.55556,123.247,1318.04)">
                    <path d="M0,-10.108L3.282,-10.108L3.282,-13.257C3.282,-17.057 5.38,-19.554 9.579,-19.554L11.677,-19.158L11.677,-15.355L9.446,-15.747C8.138,-15.747 7.611,-14.962 7.611,-13.645L7.611,-10.108L11.81,-10.108L11.81,-6.297L7.611,-6.297L7.611,9.446L3.412,9.446L3.412,-6.297L0,-6.297L0,-10.108" style="fill:rgb(184,32,101);fill-rule:nonzero;"/>
                </g>
                <g transform="matrix(5.55556,0,0,5.55556,247.894,1280.9)">
                    <path d="M0,12.853C3.935,12.853 6.036,9.967 6.036,6.422C6.036,2.885 3.935,-0.007 0,-0.007C-3.937,-0.007 -6.035,2.885 -6.035,6.422C-6.035,9.833 -3.937,12.853 0,12.853M0,-3.808C5.379,-3.808 10.235,0.388 10.235,6.422C10.235,12.464 5.513,16.661 0,16.661C-5.511,16.661 -10.236,12.464 -10.236,6.422C-10.236,0.254 -5.38,-3.808 0,-3.808" style="fill:rgb(184,32,101);fill-rule:nonzero;"/>
                </g>
                <g transform="matrix(5.55556,0,0,5.55556,371.109,1280.9)">
                    <path d="M0,12.853C3.938,12.853 6.037,9.967 6.037,6.422C6.037,2.885 3.938,-0.007 0,-0.007C-3.938,-0.007 -6.036,2.885 -6.036,6.422C-6.036,9.833 -3.938,12.853 0,12.853M0,-3.808C5.38,-3.808 10.236,0.388 10.236,6.422C10.236,12.464 5.513,16.661 0,16.661C-5.513,16.661 -10.236,12.464 -10.236,6.422C-10.102,0.254 -5.379,-3.808 0,-3.808" style="fill:rgb(184,32,101);fill-rule:nonzero;"/>
                </g>
                <g transform="matrix(5.55556,0,0,5.55556,494.306,1302.73)">
                    <path d="M0,-4.069C-3.938,-4.069 -6.036,-1.18 -6.036,2.361C-6.036,5.902 -3.938,8.787 0,8.787C3.539,8.787 6.036,5.902 6.036,2.361C6.036,-1.05 3.539,-4.069 0,-4.069M9.842,12.202L6.036,12.202L5.643,10.5L5.38,10.234L5.117,10.5C3.806,11.81 1.837,12.595 -0.262,12.595C-5.646,12.595 -10.235,8.4 -10.235,2.361C-10.235,-3.677 -5.646,-7.877 -0.262,-7.877C1.837,-7.877 3.938,-7.089 5.117,-5.775L5.38,-5.509L5.643,-5.775L5.643,-16.664L9.842,-16.664L9.842,12.202" style="fill:rgb(184,32,101);fill-rule:nonzero;"/>
                </g>
                <g transform="matrix(5.55556,0,0,5.55556,626.228,1327.53)">
                    <path d="M0,4.459C3.938,4.459 6.038,1.573 6.038,-1.972C6.038,-5.509 3.938,-8.401 0,-8.401C-3.541,-8.401 -6.038,-5.509 -6.038,-1.972C-6.038,1.439 -3.541,4.459 0,4.459M-9.712,-11.813L-5.905,-11.813L-5.509,-10.107L-5.246,-9.841L-4.987,-10.107C-3.671,-11.417 -1.709,-12.202 0.393,-12.202C5.772,-12.202 10.367,-8.006 10.367,-1.972C10.367,4.07 5.772,8.267 0.393,8.267C-1.709,8.267 -3.803,7.479 -4.987,6.168L-5.246,5.902L-5.509,6.168L-5.509,16.661L-9.575,16.661L-9.575,-11.813L-9.712,-11.813" style="fill:rgb(184,32,101);fill-rule:nonzero;"/>
                </g>
                <g transform="matrix(5.55556,0,0,5.55556,731.22,1277.94)">
                    <path d="M0,13.385C1.311,13.385 2.624,12.996 3.542,12.072C4.592,11.154 5.114,9.974 5.114,8.398L5.114,8.006L1.573,8.006C-0.92,8.006 -2.493,9.186 -2.493,11.025C-2.493,12.334 -1.575,13.385 0,13.385M1.836,4.464L5.247,4.464L5.247,3.544C5.247,1.187 3.672,0.135 1.439,0.135C-0.398,0.135 -1.575,1.053 -2.234,2.755L-5.904,1.971C-5.119,-1.311 -2.234,-3.412 1.573,-3.412C6.819,-3.412 9.443,-0.785 9.443,4.335L9.443,16.533L6.035,16.533L5.64,13.91C4.33,15.879 2.229,16.797 -0.525,16.797C-4.069,16.797 -6.562,14.698 -6.562,10.766C-6.696,6.954 -3.285,4.464 1.836,4.464" style="fill:rgb(184,32,101);fill-rule:nonzero;"/>
                </g>
                <g transform="matrix(5.55556,0,0,5.55556,804.115,1368.36)">
                    <path d="M0,-19.165L3.804,-19.165L4.195,-17.456L4.462,-17.193L4.724,-17.456C5.509,-18.769 7.61,-19.554 9.316,-19.554C14.303,-19.554 17.186,-16.272 17.186,-11.684L17.186,0.389L12.99,0.389L12.99,-11.684C12.856,-14.308 11.551,-15.883 8.791,-15.883C6.297,-15.883 4.332,-13.915 4.195,-11.421L4.195,0.389L0,0.389L0,-19.165" style="fill:rgb(184,32,101);fill-rule:nonzero;"/>
                </g>
                <g transform="matrix(5.55556,0,0,5.55556,970.32,1302.73)">
                    <path d="M0,-4.069C-3.94,-4.069 -6.038,-1.18 -6.038,2.361C-6.038,5.902 -3.94,8.787 0,8.787C3.541,8.787 6.035,5.902 6.035,2.361C6.035,-1.05 3.541,-4.069 0,-4.069M9.709,12.202L5.901,12.202L5.51,10.5L5.247,10.234L4.979,10.5C3.67,11.81 1.706,12.595 -0.399,12.595C-5.778,12.595 -10.367,8.4 -10.367,2.361C-10.367,-3.677 -5.778,-7.877 -0.399,-7.877C1.706,-7.877 3.804,-7.089 4.979,-5.775L5.247,-5.509L5.51,-5.775L5.51,-16.664L9.709,-16.664L9.709,12.202" style="fill:rgb(184,32,101);fill-rule:nonzero;"/>
                </g>
                <g transform="matrix(5.55556,0,0,5.55556,1080.39,1277.94)">
                    <path d="M0,13.385C1.312,13.385 2.623,12.996 3.54,12.072C4.592,11.154 5.117,9.974 5.117,8.398L5.117,8.006L1.571,8.006C-0.918,8.006 -2.49,9.186 -2.49,11.025C-2.49,12.334 -1.573,13.385 0,13.385M1.834,4.464L5.246,4.464L5.246,3.544C5.246,1.187 3.674,0.135 1.439,0.135C-0.396,0.135 -1.573,1.053 -2.231,2.755L-5.901,1.971C-5.117,-1.311 -2.231,-3.412 1.571,-3.412C6.818,-3.412 9.446,-0.785 9.446,4.335L9.446,16.533L6.034,16.533L5.642,13.91C4.329,15.879 2.23,16.797 -0.522,16.797C-4.067,16.797 -6.561,14.698 -6.561,10.766C-6.693,6.954 -3.412,4.464 1.834,4.464" style="fill:rgb(184,32,101);fill-rule:nonzero;"/>
                </g>
                <g transform="matrix(5.55556,0,0,5.55556,-1496.43,329.812)">
                    <g transform="matrix(0.18,0,0,0.18,306.725,-56.9441)">
                        <path d="M-204.394,1187.65C-204.335,1187.56 -204.275,1187.46 -204.215,1187.37C-201.704,1183.58 -198.143,1180.44 -193.959,1178.56C-190.587,1176.88 -186.626,1176.05 -182.637,1176.05C-178.654,1176.05 -174.687,1176.88 -171.343,1178.56C-167.137,1180.68 -163.793,1183.58 -161.059,1187.37C-158.348,1191.58 -156.681,1196.59 -156.681,1202.03C-156.681,1209.65 -160.027,1216.54 -165.319,1221.31C-155.116,1237.11 -148.849,1256.04 -148.849,1276.57C-148.849,1330.54 -193.316,1375 -247.294,1375C-301.271,1375 -345.738,1330.54 -345.738,1276.57C-345.738,1255.99 -339.439,1237.01 -329.189,1221.19C-334.403,1216.43 -337.694,1209.59 -337.694,1202.03C-337.694,1196.59 -336.022,1191.58 -333.305,1187.37C-330.794,1183.58 -327.239,1180.44 -323.022,1178.56C-319.678,1176.88 -315.716,1176.05 -311.728,1176.05C-307.75,1176.05 -303.778,1176.88 -300.411,1178.56C-296.228,1180.68 -292.883,1183.58 -290.15,1187.37C-290.107,1187.44 -290.065,1187.5 -290.022,1187.57C-277.346,1181.26 -262.314,1178.11 -247.294,1178.11C-232.216,1178.11 -217.127,1181.28 -204.416,1187.64L-204.394,1187.65ZM-170.022,1215.15C-166.554,1211.82 -164.381,1207.16 -164.381,1202.03C-164.381,1198.21 -165.581,1194.69 -167.476,1191.71C-169.387,1189.09 -171.759,1187 -174.687,1185.56C-177.043,1184.36 -179.854,1183.77 -182.637,1183.77C-185.426,1183.77 -188.237,1184.36 -190.587,1185.56C-193.391,1186.81 -195.808,1188.9 -197.569,1191.38C-186.939,1197.69 -177.851,1205.62 -170.022,1215.15ZM-297.025,1191.1C-298.853,1188.77 -301.08,1186.89 -303.778,1185.56C-306.133,1184.36 -308.944,1183.77 -311.728,1183.77C-314.516,1183.77 -317.333,1184.36 -319.678,1185.56C-322.605,1186.87 -325.122,1189.09 -326.894,1191.71C-328.783,1194.69 -329.978,1198.21 -329.978,1202.03C-329.978,1207.02 -327.924,1211.56 -324.625,1214.87C-317.102,1205.3 -307.721,1197.1 -297.025,1191.1Z" style="fill:white;fill-rule:nonzero;stroke:rgb(184,32,101);stroke-width:24.45px;"/>
                    </g>
                    <g transform="matrix(1,0,0,1,262.244,155.116)">
                        <path d="M0,35.441C-9.716,35.441 -17.72,27.438 -17.72,17.722C-17.72,14.003 -16.577,10.574 -14.719,7.72C-13.004,5.145 -10.577,3.002 -7.717,1.716C-5.43,0.571 -2.714,0 0,0C2.714,0 5.43,0.571 7.718,1.716C10.574,3.145 12.861,5.145 14.719,7.72C16.577,10.574 17.72,14.003 17.72,17.722C17.72,27.438 9.716,35.441 0,35.441" style="fill:white;fill-rule:nonzero;"/>
                    </g>
                    <g transform="matrix(1,0,0,1,268.886,170.845)">
                        <path d="M0,-1.839C-0.527,-1.839 -0.921,-2.235 -0.921,-2.767C-0.921,-3.289 -0.527,-3.689 0,-3.689C0.527,-3.689 0.921,-3.289 0.921,-2.767C0.921,-2.235 0.527,-1.839 0,-1.839M3.557,-5.664C1.976,-6.718 -1.45,-7.247 -2.769,-5.531C-2.769,-5.531 -4.483,-3.689 -2.769,-1.839C-1.054,0.007 0.133,1.848 0.527,3.302C0.921,4.881 1.582,5.408 2.765,5.408C3.957,5.408 6.327,3.565 6.722,0.529C6.986,-2.501 5.14,-4.743 3.557,-5.664" style="fill:rgb(183,32,101);fill-rule:nonzero;"/>
                    </g>
                    <g transform="matrix(1,0,0,1,255.803,170.845)">
                        <path d="M0,-1.839C-0.527,-1.839 -0.923,-2.235 -0.923,-2.767C-0.923,-3.289 -0.527,-3.689 0,-3.689C0.527,-3.689 0.921,-3.289 0.921,-2.767C0.921,-2.235 0.527,-1.839 0,-1.839M2.502,-5.531C1.187,-7.247 -2.241,-6.718 -3.823,-5.664C-5.406,-4.606 -7.248,-2.501 -6.987,0.529C-6.725,3.565 -4.35,5.408 -3.031,5.408C-1.847,5.408 -1.187,4.749 -0.793,3.302C-0.396,1.716 0.921,0.007 2.502,-1.839C4.217,-3.821 2.502,-5.531 2.502,-5.531" style="fill:rgb(183,32,101);fill-rule:nonzero;"/>
                    </g>
                    <g transform="matrix(1,0,0,1,250.646,156.139)">
                        <path d="M0,6.563C-1.8,6.563 -3.285,5.082 -3.285,3.282C-3.285,2.595 -3.07,1.961 -2.73,1.425C-2.411,0.953 -1.958,0.553 -1.431,0.318C-1.009,0.102 -0.502,-0.004 0,-0.004C0.501,-0.004 1.007,0.102 1.431,0.318C1.958,0.578 2.385,0.953 2.729,1.425C3.073,1.961 3.285,2.595 3.285,3.282C3.285,5.082 1.8,6.563 0,6.563M2.037,-0.942C1.431,-1.244 0.716,-1.394 0,-1.394C-0.718,-1.394 -1.431,-1.244 -2.033,-0.942C-2.792,-0.603 -3.432,-0.039 -3.884,0.644C-4.373,1.401 -4.674,2.304 -4.674,3.282C-4.674,5.849 -2.565,7.957 0,7.957C2.563,7.957 4.676,5.849 4.676,3.282C4.676,2.304 4.371,1.401 3.884,0.644C3.392,-0.039 2.79,-0.561 2.037,-0.942" style="fill:white;fill-rule:nonzero;"/>
                    </g>
                    <g transform="matrix(1,0,0,1,273.882,156.139)">
                        <path d="M0,6.563C-1.8,6.563 -3.285,5.082 -3.285,3.282C-3.285,2.595 -3.073,1.961 -2.729,1.425C-2.409,0.953 -1.958,0.553 -1.431,0.318C-1.008,0.102 -0.502,-0.004 0,-0.004C0.501,-0.004 1.007,0.102 1.431,0.318C1.958,0.578 2.385,0.953 2.729,1.425C3.07,1.961 3.286,2.595 3.286,3.282C3.286,5.082 1.801,6.563 0,6.563M3.884,0.644C3.392,-0.039 2.79,-0.561 2.033,-0.942C1.431,-1.244 0.717,-1.394 0,-1.394C-0.718,-1.394 -1.431,-1.244 -2.038,-0.942C-2.791,-0.603 -3.432,-0.039 -3.884,0.644C-4.372,1.401 -4.674,2.304 -4.674,3.282C-4.674,5.849 -2.565,7.957 0,7.957C2.564,7.957 4.672,5.849 4.672,3.282C4.672,2.304 4.372,1.401 3.884,0.644" style="fill:white;fill-rule:nonzero;"/>
                    </g>
                    <g transform="matrix(1,0,0,1,262.216,177.293)">
                        <path d="M0,3.813C2.366,3.813 4.34,2.1 4.34,0L-4.344,0C-4.344,2.1 -2.5,3.813 0,3.813" style="fill:rgb(183,32,101);fill-rule:nonzero;"/>
                    </g>
                    <g transform="matrix(1,0,0,1,262.216,173.275)">
                        <path d="M0,2.914C0.261,3.037 3.026,2.027 3.026,0.764C3.026,0.004 0.789,-0.123 0,-0.123C-0.79,-0.123 -3.028,0.004 -3.028,0.764C-3.16,2.027 -0.266,3.037 0,2.914" style="fill:rgb(183,32,101);fill-rule:nonzero;"/>
                    </g>
                </g>
                <g transform="matrix(4.68362,0,0,4.68362,-1771.35,-5833.59)">
                    <text x="510.281px" y="1551.38px" style="font-family:'UberMove-Medium', 'Uber Move';font-weight:500;font-size:12px;fill:rgb(184,32,101);">f<tspan x="513.989px " y="1551.38px ">o</tspan>od deliv<tspan x="563.561px 570.485px 574.493px " y="1551.38px 1551.38px 1551.38px ">ery</tspan> s<tspan x="588.185px 594.209px 599.357px " y="1551.38px 1551.38px 1551.38px ">yst</tspan>em</text>
                </g>
            </g>
        </g>
    </g>
</svg>
