<?xml version="1.0" encoding="UTF-8" standalone="no"?>
<!DOCTYPE svg PUBLIC "-//W3C//DTD SVG 1.1//EN" "http://www.w3.org/Graphics/SVG/1.1/DTD/svg11.dtd">
<svg width="100%" height="100%" viewBox="0 0 228767 73367" version="1.1" xmlns="http://www.w3.org/2000/svg" xmlns:xlink="http://www.w3.org/1999/xlink" xml:space="preserve" xmlns:serif="http://www.serif.com/" style="fill-rule:evenodd;clip-rule:evenodd;stroke-linejoin:round;stroke-miterlimit:2;">
    <g transform="matrix(5.55556,0,0,5.55556,0,0)">
        <g transform="matrix(5.55556,0,0,5.55556,0,0)">
            <g transform="matrix(5.55556,0,0,5.55556,0,-798.651)">
                <g id="Artboard1">
                    <rect x="0" y="143.757" width="1334.04" height="427.795" style="fill:none;"/>
                </g>
            </g>
            <g transform="matrix(1.49181,0,0,1.49181,652.631,398.367)">
                <rect x="0.935" y="4.348" width="850.416" height="638.636" style="fill:rgb(33,29,112);fill-rule:nonzero;"/>
                <path d="M426.221,1055C661.616,1055 852.184,864.215 852.184,628.811C852.184,393.46 661.616,203.022 426.221,203.022C190.982,203.013 0.206,393.451 0.206,628.803C0.206,864.207 190.982,1055 426.221,1055" style="fill:rgb(97,17,106);fill-rule:nonzero;"/>
                <path d="M426.195,701.195L556.06,745.008L426.195,785.548L426.195,701.195ZM169.657,403.519L426.195,527.995L685.9,403.519L426.195,490.431L169.657,403.519Z" style="fill:rgb(254,190,16);fill-rule:nonzero;"/>
                <path d="M169.657,349.63L426.195,474.123L685.9,349.63L426.195,436.543L169.657,349.63Z" style="fill:rgb(254,190,16);fill-rule:nonzero;"/>
                <path d="M426.195,588.514L169.709,496.056L169.709,450.447L426.195,541.968C686.568,451.358 685.9,450.447 685.9,450.447L685.9,496.047L426.195,588.514ZM169.657,294.196L426.195,418.794L685.9,294.196L426.195,381.083L169.657,294.196Z" style="fill:rgb(254,190,16);fill-rule:nonzero;"/>
                <path d="M169.657,241.037L426.195,365.79L685.9,241.037L426.195,327.923L169.657,241.037Z" style="fill:rgb(254,190,16);fill-rule:nonzero;"/>
                <path d="M169.657,186.202L426.195,310.895L685.9,186.202L426.195,273.054L169.657,186.202Z" style="fill:rgb(254,190,16);fill-rule:nonzero;"/>
                <path d="M169.657,149.776L426.195,228.764L685.9,149.776L426.195,61.7L169.657,149.776Z" style="fill:rgb(254,190,16);fill-rule:nonzero;"/>
                <path d="M263.704,563.579L153.592,563.579L772.969,876.262C782.491,862.962 791.239,849.125 799.171,834.819L263.704,563.579Z" style="fill:white;fill-rule:nonzero;"/>
                <path d="M588.685,563.579L53.27,834.802C61.199,849.108 69.95,862.943 79.481,876.236L698.806,563.579L588.685,563.579Z" style="fill:white;fill-rule:nonzero;"/>
                <path d="M615.834,682.527L620.815,657.027L689.172,635.789L721.849,643.314L768.491,677.441L766,682.952L777.682,711.385L750.369,741.119L716.138,692.351L687.054,679.576L669.601,695.467L654.013,701.794C654.013,701.794 656.556,710.135 649.491,712.912L628.505,703.981L664.35,757.427C664.35,757.427 619.262,718.962 524.416,775.194C524.416,775.194 478.304,812.375 420.076,827.963C420.076,827.963 376.185,835.904 327.626,875.021C278.962,913.973 199.383,930.281 149.261,950.729C149.261,950.729 228.154,888.109 256.873,876.297C256.873,876.297 288.144,861.915 325.387,833.943C370.527,800.337 396.911,793.264 425.691,785.556C425.691,785.556 465.476,773.449 504.012,736.033C504.012,736.033 540.108,716.011 547.537,708.503C547.537,708.503 560.469,692.742 571.067,667.008L574.547,681.268C574.547,681.268 597.095,656.567 590.647,640.65L615.834,682.527Z" style="fill:white;fill-rule:nonzero;"/>
                <path d="M236.556,682.527L231.574,657.027L163.217,635.789L130.54,643.314L83.898,677.441L86.389,682.952L74.707,711.385L102.021,741.119L136.251,692.351L165.335,679.576L182.788,695.467L198.376,701.794C198.376,701.794 195.833,710.135 202.898,712.912L223.884,703.981L188.039,757.427C188.039,757.427 233.127,718.962 327.973,775.194C327.973,775.194 374.085,812.375 432.313,827.963C432.313,827.963 476.204,835.904 524.763,875.021C573.427,913.973 653.006,930.281 703.128,950.729C703.128,950.729 624.235,888.109 595.516,876.297C595.516,876.297 564.245,861.915 527.003,833.943C481.863,800.337 455.478,793.264 426.698,785.556C426.698,785.556 386.913,773.449 348.378,736.033C348.378,736.033 312.281,716.011 304.852,708.503C304.852,708.503 291.92,692.742 281.323,667.008L277.842,681.268C277.842,681.268 255.294,656.567 261.742,640.65L236.556,682.527Z" style="fill:white;fill-rule:nonzero;"/>
            </g>
            <g transform="matrix(80.4664,0,0,80.4664,-1.09575e+06,-496288)">
                <text x="13646.7px" y="6179.33px" style="font-family:'RedHatDisplay-Bold', 'Red Hat Display';font-weight:700;font-size:12px;fill:white;">In<tspan x="13656.7px 13663.5px 13670.5px 13677.4px " y="6179.33px 6179.33px 6179.33px 6179.33px ">vent</tspan>ory</text>
                <text x="13646.7px" y="6191.33px" style="font-family:'RedHatDisplay-Bold', 'Red Hat Display';font-weight:700;font-size:12px;fill:white;">S<tspan x="13654.1px 13661px 13666.7px " y="6191.33px 6191.33px 6191.33px ">yst</tspan>em</text>
            </g>
        </g>
    </g>
</svg>
